<svg width="16" height="12" viewBox="0 0 16 12" fill="none" xmlns="http://www.w3.org/2000/svg">
<path d="M14.6667 0H1.33333C0.979711 0 0.640572 0.140475 0.390523 0.390523C0.140475 0.640572 0 0.979711 0 1.33333V10.6667C0 11.0203 0.140475 11.3594 0.390523 11.6095C0.640572 11.8595 0.979711 12 1.33333 12H14.6667C15.0203 12 15.3594 11.8595 15.6095 11.6095C15.8595 11.3594 16 11.0203 16 10.6667V1.33333C16 0.979711 15.8595 0.640572 15.6095 0.390523C15.3594 0.140475 15.0203 0 14.6667 0ZM15.02 1.68667L10.24 6.46666C9.94614 6.76136 9.59702 6.99518 9.21264 7.15472C8.82826 7.31426 8.41617 7.39638 8 7.39638C7.58383 7.39638 7.17174 7.31426 6.78736 7.15472C6.40298 6.99518 6.05386 6.76136 5.76 6.46666L0.980001 1.68667C0.891681 1.59188 0.843596 1.46652 0.845881 1.33699C0.848167 1.20745 0.900645 1.08386 0.992254 0.992251C1.08386 0.900642 1.20745 0.848169 1.33699 0.845884C1.46652 0.843598 1.59188 0.891681 1.68667 0.980001L6.46666 5.76C6.66768 5.96197 6.90662 6.12224 7.16976 6.2316C7.4329 6.34096 7.71504 6.39726 8 6.39726C8.28496 6.39726 8.56711 6.34096 8.83024 6.2316C9.09338 6.12224 9.33232 5.96197 9.53334 5.76L14.3133 0.980001C14.4081 0.891681 14.5335 0.843598 14.663 0.845884C14.7925 0.848169 14.9161 0.900642 15.0077 0.992251C15.0994 1.08386 15.1518 1.20745 15.1541 1.33699C15.1564 1.46652 15.1083 1.59188 15.02 1.68667Z" fill="white"/>
</svg>
