<svg width="45" height="60" viewBox="0 0 45 60" fill="none" xmlns="http://www.w3.org/2000/svg">
<path fill-rule="evenodd" clip-rule="evenodd" d="M27.5302 0H6C2.68629 0 0 2.68629 0 6V54C0 57.3137 2.6863 60 6.00001 60H38.8315C42.1452 60 44.8315 57.3137 44.8315 54V17.3013L27.5302 0Z" fill="#1988A4"/>
<path d="M44.8314 17.3034L27.5281 0C27.5281 9.55639 35.2751 17.3034 44.8314 17.3034Z" fill="#0D5C70"/>
<rect x="7.86511" y="20.2247" width="19.4382" height="2.35955" rx="1.17978" fill="white"/>
<rect x="7.86517" y="25.8427" width="29.1011" height="2.35955" rx="1.17978" fill="white"/>
<rect x="7.86517" y="31.4607" width="19.4382" height="2.35955" rx="1.17978" fill="white"/>
<rect x="7.86517" y="37.0786" width="29.1011" height="2.35955" rx="1.17978" fill="white"/>
<rect x="7.86517" y="49.3258" width="19.4382" height="2.35955" rx="1.17978" fill="white"/>
</svg>
