<svg width="16" height="16" viewBox="0 0 16 16" fill="none" xmlns="http://www.w3.org/2000/svg">
<path d="M15.3033 11.6233L11.7833 10.5067C11.6378 10.4609 11.4825 10.456 11.3344 10.4925C11.1863 10.5289 11.051 10.6053 10.9433 10.7133L9.68333 11.9733C9.63142 12.0255 9.56371 12.059 9.49075 12.0687C9.41779 12.0783 9.34369 12.0635 9.28 12.0267C8.18124 11.3849 7.17244 10.6003 6.28 9.69333C5.373 8.80089 4.58839 7.7921 3.94667 6.69333C3.9231 6.63211 3.91812 6.5653 3.93235 6.50126C3.94658 6.43722 3.97939 6.37881 4.02667 6.33333L5.21667 5.14333C5.34406 5.01436 5.43399 4.85318 5.47686 4.67704C5.51972 4.5009 5.51389 4.31642 5.46 4.14333L4.37667 0.696667C4.31228 0.494392 4.18519 0.317856 4.0138 0.192609C3.84241 0.0673628 3.63561 -9.5167e-05 3.42333 1.00768e-07H2.61667C1.85667 1.00768e-07 0 2.28667 0 3.77333C0 4.67 0.303334 7.89333 4.20333 11.7933C8.10333 15.6933 11.3333 16 12.2267 16C13.7133 16 16 14.1433 16 13.38V12.5767C16.0001 12.3644 15.9326 12.1576 15.8074 11.9862C15.6821 11.8148 15.5056 11.6877 15.3033 11.6233Z" fill="white"/>
</svg>
